<?xml version="1.0" encoding="utf-8"?>
<!-- Generator: Adobe Illustrator 21.0.0, SVG Export Plug-In . SVG Version: 6.00 Build 0)  -->
<svg version="1.1" id="Layer_1" xmlns="http://www.w3.org/2000/svg" xmlns:xlink="http://www.w3.org/1999/xlink" x="0px" y="0px"
	 viewBox="0 0 753.9 152.4" style="enable-background:new 0 0 753.9 152.4;" xml:space="preserve">
<style type="text/css">
	.st0{fill:#828282;}
</style>
<g>
	<g>
		<path class="st0" d="M62.5,97.1c-1.7,0-3.4-0.2-5.2-0.7c-1.8-0.4-3.5-1.1-5-1.9c-1.5-0.8-2.9-1.9-3.9-3.1
			c-1.1-1.2-1.7-2.6-1.9-4.2c-0.1-0.6,0-1.1,0.3-1.7c0.2-0.5,0.6-0.9,1-1.3c0.4-0.3,0.9-0.6,1.5-0.7c0.5-0.1,1.1-0.1,1.7,0.1
			c0.6,0.1,1.2,0.5,1.7,1.2s1.3,1.3,2.2,2c0.8,0.7,1.9,1.3,3.1,1.9c1.2,0.6,2.7,0.9,4.6,0.9c1,0.1,2,0.1,2.9-0.1
			c0.9-0.1,1.7-0.3,2.4-0.6c0.7-0.3,1.2-0.6,1.6-1c0.4-0.4,0.6-0.9,0.6-1.5c0-0.5-0.3-1-0.9-1.4c-0.6-0.4-1.4-0.8-2.5-1.3
			c-1-0.4-2.2-0.9-3.5-1.3c-1.3-0.4-2.6-0.9-4-1.5s-2.7-1.2-4-1.9c-1.3-0.7-2.4-1.5-3.5-2.4s-1.8-1.9-2.5-3.1
			c-0.6-1.2-0.9-2.5-0.9-4c0-1.1,0.3-2.2,0.9-3.4s1.6-2.2,2.8-3.1c1.2-0.9,2.8-1.6,4.6-2.2c1.8-0.6,3.9-0.9,6.3-0.9
			c1.7,0,3.3,0.1,4.9,0.4c1.6,0.3,3,0.8,4.3,1.4c1.3,0.6,2.4,1.4,3.3,2.3c0.9,0.9,1.6,2,2,3.3c0.1,0.7,0.1,1.4-0.2,1.9
			c-0.3,0.6-0.7,1-1.2,1.4c-0.5,0.3-1,0.6-1.6,0.7c-0.6,0.1-1.2,0.1-1.7-0.1c-0.5-0.2-1.1-0.5-1.7-0.9c-0.6-0.4-1.2-0.8-1.9-1.2
			c-0.7-0.4-1.4-0.8-2.2-1.2s-1.7-0.6-2.7-0.7c-2.1-0.2-3.8-0.1-5,0.3c-1.2,0.5-1.9,1.2-1.9,2.2c0,0.9,0.5,1.7,1.6,2.4
			c1.1,0.7,2.4,1.4,4,2.1c1.6,0.7,3.3,1.4,5.2,2.1c1.9,0.7,3.6,1.6,5.2,2.5c1.6,0.9,2.9,2,4,3.3c1.1,1.3,1.6,2.7,1.6,4.4
			c0,1.9-0.5,3.5-1.4,4.8c-0.9,1.3-2.2,2.4-3.7,3.2c-1.5,0.8-3.3,1.4-5.3,1.8C66.6,97,64.6,97.1,62.5,97.1z"/>
		<path class="st0" d="M85.4,53.5c0-0.6,0.1-1.2,0.3-1.7s0.5-1,0.9-1.4c0.4-0.4,0.9-0.7,1.4-0.9c0.5-0.2,1.1-0.3,1.7-0.3
			c0.6,0,1.2,0.1,1.7,0.3c0.5,0.2,1,0.5,1.4,0.9c0.4,0.4,0.7,0.9,0.9,1.4c0.2,0.5,0.4,1.1,0.4,1.7v39.3c0,0.6-0.1,1.2-0.4,1.7
			c-0.2,0.5-0.6,1-0.9,1.4c-0.4,0.4-0.9,0.7-1.4,0.9c-0.5,0.2-1.1,0.3-1.7,0.3c-0.6,0-1.2-0.1-1.7-0.3c-0.5-0.2-1-0.5-1.4-0.9
			c-0.4-0.4-0.7-0.9-0.9-1.4c-0.2-0.5-0.3-1.1-0.3-1.7V53.5z M113.4,88.1v-9.4c0-1.3-0.2-2.6-0.7-3.8c-0.5-1.2-1.1-2.2-1.9-3.1
			c-0.8-0.9-1.8-1.6-2.9-2.1c-1.1-0.5-2.3-0.8-3.7-0.8c-1.4,0-2.7,0.3-3.9,0.9c-1.2,0.6-2.3,1.4-3.2,2.4c-0.9,1-1.6,2.1-2.2,3.4
			c-0.5,1.3-0.8,2.6-0.8,3.9l-0.3-11.8c0.2-0.7,0.7-1.5,1.4-2.4c0.7-0.9,1.6-1.6,2.6-2.4c1-0.7,2.2-1.3,3.5-1.8
			c1.3-0.5,2.7-0.7,4.1-0.7c2.5,0,4.7,0.5,6.8,1.4c2.1,1,3.8,2.3,5.3,3.9c1.4,1.6,2.6,3.6,3.4,5.8c0.8,2.2,1.2,4.6,1.2,7.1v10.7
			L113.4,88.1z M122.2,87.1v5.6c0,0.6-0.1,1.1-0.3,1.7s-0.5,1-0.9,1.4c-0.4,0.4-0.8,0.7-1.4,1c-0.5,0.2-1.1,0.4-1.7,0.4
			c-0.7,0-1.4-0.1-1.9-0.4c-0.5-0.3-1-0.7-1.4-1.1c-0.4-0.5-0.6-1-0.8-1.6c-0.2-0.6-0.3-1.2-0.3-1.9v-5.4L122.2,87.1z"/>
		<path class="st0" d="M163.1,78.8c0,2.5-0.4,4.9-1.1,7.1c-0.7,2.2-1.8,4.2-3.2,5.8c-1.4,1.7-3.1,3-5.1,3.9c-2,1-4.3,1.5-6.8,1.5
			c-2.5,0-4.9-0.5-7.1-1.5c-2.2-1-4.2-2.3-5.8-3.9s-3-3.6-4-5.8s-1.4-4.6-1.4-7.1s0.5-4.9,1.4-7.1s2.3-4.2,4-5.8
			c1.7-1.7,3.6-3,5.8-3.9c2.2-1,4.6-1.5,7.1-1.5c2.5,0,4.8,0.5,6.8,1.5c2,1,3.7,2.3,5.1,3.9c1.4,1.7,2.4,3.6,3.2,5.8
			C162.7,73.9,163.1,76.3,163.1,78.8z M156.5,78.8c0-1.3-0.2-2.6-0.7-3.8c-0.5-1.2-1.2-2.2-2-3.1c-0.9-0.9-1.9-1.6-3-2.1
			S148.3,69,147,69c-1.3,0-2.6,0.3-3.8,0.8c-1.2,0.5-2.2,1.2-3,2.1c-0.9,0.9-1.5,1.9-2,3.1s-0.7,2.5-0.7,3.8c0,1.4,0.2,2.6,0.7,3.8
			c0.5,1.2,1.2,2.2,2,3.1c0.9,0.9,1.9,1.6,3,2.1c1.2,0.5,2.4,0.8,3.8,0.8c1.3,0,2.6-0.3,3.7-0.8s2.2-1.2,3-2.1
			c0.9-0.9,1.5-1.9,2-3.1C156.2,81.5,156.5,80.2,156.5,78.8z M165.3,80c0,0.6-0.1,1.2-0.3,1.7s-0.5,1-0.9,1.4
			c-0.4,0.4-0.9,0.7-1.4,0.9c-0.5,0.2-1.1,0.3-1.7,0.3c-0.6,0-1.2-0.1-1.7-0.3c-0.5-0.2-1-0.5-1.4-0.9c-0.4-0.4-0.7-0.9-0.9-1.4
			c-0.2-0.5-0.4-1.1-0.4-1.7v-9.7l0.9-0.5l1.6-4.9c0.3-1.6,0.8-2.7,1.5-3.3c0.7-0.7,1.5-1,2.4-1c1.6,0,2.4,0.8,2.4,2.4V80z
			 M165.3,94.4c0,0.9-0.2,1.6-0.7,2.1c-0.5,0.5-1.1,0.7-2,0.7c-0.9,0-1.7-0.3-2.2-0.8c-0.6-0.5-1-1.2-1.3-2.1l-1.6-6.4l-0.9-0.5
			v-8.5c0-0.6,0.1-1.2,0.4-1.7c0.2-0.5,0.6-1,0.9-1.4c0.4-0.4,0.9-0.7,1.4-0.9c0.5-0.2,1.1-0.3,1.7-0.3c0.6,0,1.2,0.1,1.7,0.3
			c0.5,0.2,1,0.5,1.4,0.9c0.4,0.4,0.7,0.9,0.9,1.4s0.3,1.1,0.3,1.7V94.4z"/>
		<path class="st0" d="M174,62.8c0-1.6,0.8-2.4,2.4-2.4c0.9,0,1.7,0.3,2.4,0.9s1.2,1.8,1.5,3.4l1.6,6.8l0.9,0.5v20.7
			c0,0.6-0.1,1.2-0.4,1.7c-0.2,0.5-0.6,1-0.9,1.4c-0.4,0.4-0.9,0.7-1.4,0.9c-0.5,0.2-1.1,0.3-1.7,0.3c-0.6,0-1.2-0.1-1.7-0.3
			c-0.5-0.2-1-0.5-1.4-0.9c-0.4-0.4-0.7-0.9-0.9-1.4c-0.2-0.5-0.3-1.1-0.3-1.7V62.8z M179.9,67c0.4-0.6,1-1.2,1.7-1.9
			s1.5-1.3,2.4-1.9s1.9-1.1,2.9-1.6c1.1-0.5,2.2-0.8,3.4-1c0.9-0.1,1.9-0.1,3,0c1.1,0.1,2.1,0.3,3.1,0.7c1,0.3,1.8,0.9,2.5,1.5
			c0.7,0.7,1,1.5,1,2.6c0,0.7-0.2,1.3-0.5,1.9c-0.4,0.6-0.8,1-1.3,1.3c-0.5,0.3-1.1,0.5-1.7,0.6c-0.6,0.1-1.4,0.1-2.4,0
			c-0.8,0-1.7-0.1-2.5-0.1c-0.9-0.1-1.7,0-2.5,0.3c-0.8,0.3-1.6,0.7-2.3,1.2c-0.7,0.5-1.3,1.1-1.9,1.9c-0.5,0.7-1,1.6-1.3,2.5
			c-0.3,0.9-0.6,1.9-0.7,2.9L179.9,67z"/>
		<path class="st0" d="M219.4,97.1c-2.5,0-4.9-0.5-7.1-1.5c-2.2-1-4.2-2.3-5.8-3.9c-1.7-1.6-3-3.6-4-5.8c-1-2.2-1.4-4.6-1.4-7.1
			c0-2.7,0.5-5.1,1.5-7.4c1-2.2,2.3-4.2,4.1-5.8s3.7-2.9,5.9-3.8c2.3-0.9,4.6-1.4,7.2-1.4c2.5,0,4.9,0.4,7.1,1.3
			c2.2,0.9,4.1,2.1,5.7,3.7c1.6,1.6,2.9,3.5,3.9,5.6c0.9,2.2,1.4,4.5,1.4,7.1c0,1.2-0.3,2.1-1,2.5c-0.6,0.4-1.7,0.6-3.3,0.6h-23.5
			c0.1,1.1,0.4,2.2,0.9,3.3c0.5,1,1.2,1.9,2.1,2.7c0.8,0.8,1.8,1.4,2.9,1.9c1.1,0.5,2.3,0.7,3.5,0.7c1.2,0,2.3-0.2,3.5-0.6
			c1.1-0.4,2.1-1,3-1.8c0.5-0.3,1.1-0.5,1.9-0.5s1.4,0.1,2.1,0.3c0.7,0.2,1.2,0.7,1.7,1.2c0.5,0.6,0.7,1.3,0.7,2.1
			c0,1-0.4,1.8-1.2,2.6c-0.8,0.8-1.8,1.5-3,2c-1.2,0.6-2.6,1-4.2,1.3C222.3,97,220.9,97.1,219.4,97.1z M219.7,67.6
			c-1.2,0-2.4,0.2-3.5,0.6c-1.1,0.4-2.1,1-3,1.7c-0.9,0.7-1.6,1.6-2.2,2.6c-0.6,1-0.9,2.1-1.1,3.3h19c-0.1-1.2-0.4-2.3-0.9-3.3
			c-0.5-1-1.2-1.9-2-2.6c-0.8-0.7-1.8-1.3-2.9-1.7C222,67.8,220.9,67.6,219.7,67.6z"/>
		<path class="st0" d="M258.5,97.1c-1.7,0-3.4-0.2-5.2-0.7c-1.8-0.4-3.5-1.1-5-1.9c-1.5-0.8-2.9-1.9-3.9-3.1
			c-1.1-1.2-1.7-2.6-1.9-4.2c-0.1-0.6,0-1.1,0.3-1.7c0.2-0.5,0.6-0.9,1-1.3c0.4-0.3,0.9-0.6,1.5-0.7c0.5-0.1,1.1-0.1,1.7,0.1
			c0.6,0.1,1.2,0.5,1.7,1.2s1.3,1.3,2.2,2c0.8,0.7,1.9,1.3,3.1,1.9c1.2,0.6,2.7,0.9,4.6,0.9c1,0.1,2,0.1,2.9-0.1
			c0.9-0.1,1.7-0.3,2.4-0.6c0.7-0.3,1.2-0.6,1.6-1c0.4-0.4,0.6-0.9,0.6-1.5c0-0.5-0.3-1-0.9-1.4c-0.6-0.4-1.4-0.8-2.5-1.3
			c-1-0.4-2.2-0.9-3.5-1.3c-1.3-0.4-2.6-0.9-4-1.5s-2.7-1.2-4-1.9c-1.3-0.7-2.4-1.5-3.5-2.4s-1.8-1.9-2.5-3.1
			c-0.6-1.2-0.9-2.5-0.9-4c0-1.1,0.3-2.2,0.9-3.4s1.6-2.2,2.8-3.1c1.2-0.9,2.8-1.6,4.6-2.2c1.8-0.6,3.9-0.9,6.3-0.9
			c1.7,0,3.3,0.1,4.9,0.4c1.6,0.3,3,0.8,4.3,1.4c1.3,0.6,2.4,1.4,3.3,2.3c0.9,0.9,1.6,2,2,3.3c0.1,0.7,0.1,1.4-0.2,1.9
			c-0.3,0.6-0.7,1-1.2,1.4c-0.5,0.3-1,0.6-1.6,0.7c-0.6,0.1-1.2,0.1-1.7-0.1c-0.5-0.2-1.1-0.5-1.7-0.9c-0.6-0.4-1.2-0.8-1.9-1.2
			c-0.7-0.4-1.4-0.8-2.2-1.2s-1.7-0.6-2.7-0.7c-2.1-0.2-3.8-0.1-5,0.3c-1.2,0.5-1.9,1.2-1.9,2.2c0,0.9,0.5,1.7,1.6,2.4
			c1.1,0.7,2.4,1.4,4,2.1c1.6,0.7,3.3,1.4,5.2,2.1c1.9,0.7,3.6,1.6,5.2,2.5c1.6,0.9,2.9,2,4,3.3c1.1,1.3,1.6,2.7,1.6,4.4
			c0,1.9-0.5,3.5-1.4,4.8c-0.9,1.3-2.2,2.4-3.7,3.2c-1.5,0.8-3.3,1.4-5.3,1.8C262.6,97,260.6,97.1,258.5,97.1z"/>
	</g>
	<g>
		<path class="st0" d="M349.6,68c-0.1-0.2-0.1-0.4-0.1-0.7c0-0.2,0.1-0.4,0.2-0.6c0.2-0.1,0.5-0.2,1-0.2h11.6c0.2,0,0.4,0,0.6,0.1
			c0.2,0.1,0.4,0.1,0.6,0.3c0.2,0.1,0.3,0.3,0.5,0.5s0.2,0.5,0.2,0.8c0,0.3,0,0.5-0.1,0.7c-0.1,0.2-0.2,0.4-0.4,0.6
			s-0.4,0.3-0.6,0.4s-0.5,0.2-0.8,0.2h-8.9v5.3h6.7c0.2,0,0.5,0,0.7,0.1c0.2,0.1,0.4,0.2,0.6,0.3s0.3,0.3,0.4,0.6
			c0.1,0.2,0.2,0.5,0.2,0.8c0,0.3-0.1,0.5-0.2,0.8c-0.1,0.2-0.2,0.4-0.4,0.6c-0.2,0.2-0.4,0.3-0.6,0.4c-0.2,0.1-0.5,0.1-0.7,0.1
			h-6.7v5.9c0,0.3,0,0.5-0.1,0.7s-0.2,0.4-0.4,0.6s-0.4,0.3-0.6,0.4s-0.5,0.2-0.8,0.2c-0.3,0-0.5-0.1-0.8-0.2
			c-0.2-0.1-0.4-0.2-0.6-0.4s-0.3-0.4-0.4-0.6c-0.1-0.2-0.1-0.5-0.1-0.7V68.7C349.7,68.5,349.6,68.3,349.6,68z"/>
		<path class="st0" d="M364.9,76.8c0-0.9,0.1-1.8,0.4-2.7c0.2-0.9,0.6-1.7,1-2.4c0.4-0.8,1-1.4,1.6-2.1s1.3-1.2,2.1-1.6
			c0.8-0.4,1.6-0.8,2.4-1c0.9-0.2,1.8-0.4,2.7-0.4c0.9,0,1.8,0.1,2.7,0.4c0.9,0.2,1.7,0.6,2.4,1c0.8,0.4,1.4,1,2.1,1.6
			s1.2,1.3,1.6,2.1c0.4,0.8,0.8,1.6,1,2.4c0.2,0.9,0.4,1.8,0.4,2.7c0,0.9-0.1,1.8-0.4,2.7c-0.2,0.9-0.6,1.7-1,2.4s-1,1.4-1.6,2.1
			s-1.3,1.2-2.1,1.6s-1.6,0.8-2.4,1c-0.9,0.2-1.8,0.4-2.7,0.4c-1.4,0-2.7-0.3-4-0.8s-2.3-1.3-3.2-2.2c-0.9-0.9-1.7-2-2.2-3.2
			C365.1,79.5,364.9,78.2,364.9,76.8z M368.6,76.9c0,0.9,0.2,1.7,0.5,2.5c0.3,0.8,0.8,1.5,1.4,2.1c0.6,0.6,1.3,1.1,2.1,1.4
			c0.8,0.3,1.6,0.5,2.5,0.5s1.7-0.2,2.5-0.5c0.8-0.3,1.5-0.8,2.1-1.4c0.6-0.6,1.1-1.3,1.4-2.1c0.3-0.8,0.5-1.6,0.5-2.5
			s-0.2-1.7-0.5-2.5c-0.3-0.8-0.8-1.5-1.4-2.1s-1.3-1.1-2.1-1.4c-0.8-0.3-1.6-0.5-2.5-0.5s-1.7,0.2-2.5,0.5
			c-0.8,0.3-1.5,0.8-2.1,1.4c-0.6,0.6-1,1.3-1.4,2.1C368.8,75.1,368.6,76,368.6,76.9z"/>
		<path class="st0" d="M403.4,74.2c0,1.1-0.2,2.1-0.7,3c-0.4,0.9-1,1.7-1.8,2.4c-0.7,0.7-1.6,1.2-2.6,1.5c-1,0.4-2,0.6-3.1,0.6h-3.2
			v3.5c0,0.3,0,0.5-0.1,0.7c-0.1,0.2-0.2,0.4-0.4,0.6c-0.2,0.2-0.4,0.3-0.6,0.4c-0.2,0.1-0.5,0.1-0.7,0.1c-0.3,0-0.5,0-0.7-0.1
			c-0.2-0.1-0.4-0.2-0.6-0.4s-0.3-0.4-0.4-0.6s-0.1-0.5-0.1-0.7V68.5c0-0.2,0-0.4-0.1-0.6c-0.1-0.2-0.1-0.4-0.1-0.6
			c0-0.1,0-0.2,0.1-0.3c0-0.1,0.1-0.2,0.2-0.2c0.1-0.1,0.2-0.1,0.4-0.2s0.4-0.1,0.7-0.1h5.8c1.1,0,2.1,0.2,3.1,0.6
			c1,0.4,1.8,0.9,2.6,1.6c0.7,0.7,1.3,1.5,1.8,2.4C403.2,72.1,403.4,73.1,403.4,74.2z M399.7,74.3c0-0.6-0.1-1.2-0.3-1.7
			s-0.6-1-1-1.4c-0.4-0.4-0.9-0.7-1.4-1c-0.5-0.2-1.1-0.3-1.7-0.3H392v8.5h3.3c0.6,0,1.2-0.1,1.7-0.3c0.5-0.2,1-0.5,1.4-0.8
			c0.4-0.4,0.7-0.8,1-1.3S399.7,74.9,399.7,74.3z M399.3,78.8l3.8,5.3c0.2,0.2,0.3,0.4,0.3,0.6c0.1,0.2,0.1,0.5,0.1,0.7
			s-0.1,0.4-0.2,0.7c-0.1,0.2-0.3,0.4-0.5,0.6c-0.2,0.2-0.4,0.3-0.7,0.3c-0.2,0.1-0.5,0.1-0.7,0c-0.2,0-0.5-0.1-0.7-0.2
			c-0.2-0.1-0.4-0.3-0.5-0.5l-4-6.2L399.3,78.8z"/>
	</g>
	<path class="st0" d="M301.3,152.4H29.4C13.2,152.4,0,139.2,0,123V29.4C0,13.2,13.2,0,29.4,0h271.9c16.2,0,29.4,13.2,29.4,29.4v53.7
		c0,6.2,1.6,11,4.8,14.1c4.5,4.4,11.1,4.5,11.3,4.5c0,0,0.1,0,0.1,0h57c3.3,0,6,2.7,6,6s-2.7,6-6,6h-57c0,0,0,0,0,0
		c-1.3,0-11.9-0.3-19.8-8c-5.5-5.5-8.4-13.1-8.4-22.6V29.4c0-9.6-7.8-17.4-17.4-17.4H29.4C19.8,12,12,19.8,12,29.4V123
		c0,9.6,7.8,17.4,17.4,17.4h271.9c4.8,0,9.2-1.8,12.5-5c3.2-3.1,5-7.3,5-11.8c0-3.3,2.7-6,6-6s6,2.7,6,6c0,7.8-3,15-8.6,20.4
		C316.7,149.5,309.3,152.4,301.3,152.4z"/>
	<g>
		<path class="st0" d="M489.7,97.1c-1.7,0-3.4-0.2-5.2-0.7c-1.8-0.4-3.5-1.1-5-1.9c-1.5-0.8-2.9-1.9-3.9-3.1
			c-1.1-1.2-1.7-2.6-1.9-4.2c-0.1-0.6,0-1.1,0.3-1.7c0.2-0.5,0.6-0.9,1-1.3c0.4-0.3,0.9-0.6,1.5-0.7c0.5-0.1,1.1-0.1,1.7,0.1
			c0.6,0.1,1.2,0.5,1.7,1.2s1.3,1.3,2.2,2c0.8,0.7,1.9,1.3,3.1,1.9c1.2,0.6,2.7,0.9,4.6,0.9c1,0.1,2,0.1,2.9-0.1
			c0.9-0.1,1.7-0.3,2.4-0.6c0.7-0.3,1.2-0.6,1.6-1c0.4-0.4,0.6-0.9,0.6-1.5c0-0.5-0.3-1-0.9-1.4c-0.6-0.4-1.4-0.8-2.5-1.3
			c-1-0.4-2.2-0.9-3.5-1.3c-1.3-0.4-2.6-0.9-4-1.5s-2.7-1.2-4-1.9c-1.3-0.7-2.4-1.5-3.5-2.4s-1.8-1.9-2.5-3.1
			c-0.6-1.2-0.9-2.5-0.9-4c0-1.1,0.3-2.2,0.9-3.4s1.6-2.2,2.8-3.1c1.2-0.9,2.8-1.6,4.6-2.2c1.8-0.6,3.9-0.9,6.3-0.9
			c1.7,0,3.3,0.1,4.9,0.4c1.6,0.3,3,0.8,4.3,1.4c1.3,0.6,2.4,1.4,3.3,2.3c0.9,0.9,1.6,2,2,3.3c0.1,0.7,0.1,1.4-0.2,1.9
			c-0.3,0.6-0.7,1-1.2,1.4c-0.5,0.3-1,0.6-1.6,0.7c-0.6,0.1-1.2,0.1-1.7-0.1c-0.5-0.2-1.1-0.5-1.7-0.9c-0.6-0.4-1.2-0.8-1.9-1.2
			c-0.7-0.4-1.4-0.8-2.2-1.2s-1.7-0.6-2.7-0.7c-2.1-0.2-3.8-0.1-5,0.3c-1.2,0.5-1.9,1.2-1.9,2.2c0,0.9,0.5,1.7,1.6,2.4
			c1.1,0.7,2.4,1.4,4,2.1c1.6,0.7,3.3,1.4,5.2,2.1c1.9,0.7,3.6,1.6,5.2,2.5c1.6,0.9,2.9,2,4,3.3c1.1,1.3,1.6,2.7,1.6,4.4
			c0,1.9-0.5,3.5-1.4,4.8c-0.9,1.3-2.2,2.4-3.7,3.2c-1.5,0.8-3.3,1.4-5.3,1.8C493.7,97,491.7,97.1,489.7,97.1z"/>
		<path class="st0" d="M512.5,53.5c0-0.6,0.1-1.2,0.3-1.7s0.5-1,0.9-1.4c0.4-0.4,0.9-0.7,1.4-0.9c0.5-0.2,1.1-0.3,1.7-0.3
			c0.6,0,1.2,0.1,1.7,0.3c0.5,0.2,1,0.5,1.4,0.9c0.4,0.4,0.7,0.9,0.9,1.4c0.2,0.5,0.4,1.1,0.4,1.7v39.3c0,0.6-0.1,1.2-0.4,1.7
			c-0.2,0.5-0.6,1-0.9,1.4c-0.4,0.4-0.9,0.7-1.4,0.9c-0.5,0.2-1.1,0.3-1.7,0.3c-0.6,0-1.2-0.1-1.7-0.3c-0.5-0.2-1-0.5-1.4-0.9
			c-0.4-0.4-0.7-0.9-0.9-1.4c-0.2-0.5-0.3-1.1-0.3-1.7V53.5z M540.5,88.1v-9.4c0-1.3-0.2-2.6-0.7-3.8c-0.5-1.2-1.1-2.2-1.9-3.1
			c-0.8-0.9-1.8-1.6-2.9-2.1c-1.1-0.5-2.3-0.8-3.7-0.8c-1.4,0-2.7,0.3-3.9,0.9c-1.2,0.6-2.3,1.4-3.2,2.4c-0.9,1-1.6,2.1-2.2,3.4
			c-0.5,1.3-0.8,2.6-0.8,3.9L521,67.7c0.2-0.7,0.7-1.5,1.4-2.4c0.7-0.9,1.6-1.6,2.6-2.4c1-0.7,2.2-1.3,3.5-1.8
			c1.3-0.5,2.7-0.7,4.1-0.7c2.5,0,4.7,0.5,6.8,1.4c2.1,1,3.8,2.3,5.3,3.9c1.4,1.6,2.6,3.6,3.4,5.8c0.8,2.2,1.2,4.6,1.2,7.1v10.7
			L540.5,88.1z M549.3,87.1v5.6c0,0.6-0.1,1.1-0.3,1.7s-0.5,1-0.9,1.4c-0.4,0.4-0.8,0.7-1.4,1c-0.5,0.2-1.1,0.4-1.7,0.4
			c-0.7,0-1.4-0.1-1.9-0.4c-0.5-0.3-1-0.7-1.4-1.1c-0.4-0.5-0.6-1-0.8-1.6c-0.2-0.6-0.3-1.2-0.3-1.9v-5.4L549.3,87.1z"/>
		<path class="st0" d="M590.3,78.8c0,2.5-0.4,4.9-1.1,7.1c-0.7,2.2-1.8,4.2-3.2,5.8c-1.4,1.7-3.1,3-5.1,3.9c-2,1-4.3,1.5-6.8,1.5
			c-2.5,0-4.9-0.5-7.1-1.5c-2.2-1-4.2-2.3-5.8-3.9s-3-3.6-4-5.8s-1.4-4.6-1.4-7.1s0.5-4.9,1.4-7.1s2.3-4.2,4-5.8
			c1.7-1.7,3.6-3,5.8-3.9c2.2-1,4.6-1.5,7.1-1.5c2.5,0,4.8,0.5,6.8,1.5c2,1,3.7,2.3,5.1,3.9c1.4,1.7,2.4,3.6,3.2,5.8
			C589.9,73.9,590.3,76.3,590.3,78.8z M583.6,78.8c0-1.3-0.2-2.6-0.7-3.8c-0.5-1.2-1.2-2.2-2-3.1c-0.9-0.9-1.9-1.6-3-2.1
			s-2.4-0.8-3.7-0.8c-1.3,0-2.6,0.3-3.8,0.8c-1.2,0.5-2.2,1.2-3,2.1c-0.9,0.9-1.5,1.9-2,3.1s-0.7,2.5-0.7,3.8c0,1.4,0.2,2.6,0.7,3.8
			c0.5,1.2,1.2,2.2,2,3.1c0.9,0.9,1.9,1.6,3,2.1c1.2,0.5,2.4,0.8,3.8,0.8c1.3,0,2.6-0.3,3.7-0.8s2.2-1.2,3-2.1
			c0.9-0.9,1.5-1.9,2-3.1C583.4,81.5,583.6,80.2,583.6,78.8z M592.5,80c0,0.6-0.1,1.2-0.3,1.7s-0.5,1-0.9,1.4
			c-0.4,0.4-0.9,0.7-1.4,0.9c-0.5,0.2-1.1,0.3-1.7,0.3c-0.6,0-1.2-0.1-1.7-0.3c-0.5-0.2-1-0.5-1.4-0.9c-0.4-0.4-0.7-0.9-0.9-1.4
			c-0.2-0.5-0.4-1.1-0.4-1.7v-9.7l0.9-0.5l1.6-4.9c0.3-1.6,0.8-2.7,1.5-3.3c0.7-0.7,1.5-1,2.4-1c1.6,0,2.4,0.8,2.4,2.4V80z
			 M592.5,94.4c0,0.9-0.2,1.6-0.7,2.1c-0.5,0.5-1.1,0.7-2,0.7c-0.9,0-1.7-0.3-2.2-0.8c-0.6-0.5-1-1.2-1.3-2.1l-1.6-6.4l-0.9-0.5
			v-8.5c0-0.6,0.1-1.2,0.4-1.7c0.2-0.5,0.6-1,0.9-1.4c0.4-0.4,0.9-0.7,1.4-0.9c0.5-0.2,1.1-0.3,1.7-0.3c0.6,0,1.2,0.1,1.7,0.3
			c0.5,0.2,1,0.5,1.4,0.9c0.4,0.4,0.7,0.9,0.9,1.4s0.3,1.1,0.3,1.7V94.4z"/>
		<path class="st0" d="M601.2,62.8c0-1.6,0.8-2.4,2.4-2.4c0.9,0,1.7,0.3,2.4,0.9s1.2,1.8,1.5,3.4l1.6,6.8l0.9,0.5v20.7
			c0,0.6-0.1,1.2-0.4,1.7c-0.2,0.5-0.6,1-0.9,1.4c-0.4,0.4-0.9,0.7-1.4,0.9c-0.5,0.2-1.1,0.3-1.7,0.3c-0.6,0-1.2-0.1-1.7-0.3
			c-0.5-0.2-1-0.5-1.4-0.9c-0.4-0.4-0.7-0.9-0.9-1.4c-0.2-0.5-0.3-1.1-0.3-1.7V62.8z M607.1,67c0.4-0.6,1-1.2,1.7-1.9
			s1.5-1.3,2.4-1.9s1.9-1.1,2.9-1.6c1.1-0.5,2.2-0.8,3.4-1c0.9-0.1,1.9-0.1,3,0c1.1,0.1,2.1,0.3,3.1,0.7c1,0.3,1.8,0.9,2.5,1.5
			c0.7,0.7,1,1.5,1,2.6c0,0.7-0.2,1.3-0.5,1.9c-0.4,0.6-0.8,1-1.3,1.3c-0.5,0.3-1.1,0.5-1.7,0.6c-0.6,0.1-1.4,0.1-2.4,0
			c-0.8,0-1.7-0.1-2.5-0.1c-0.9-0.1-1.7,0-2.5,0.3c-0.8,0.3-1.6,0.7-2.3,1.2c-0.7,0.5-1.3,1.1-1.9,1.9c-0.5,0.7-1,1.6-1.3,2.5
			c-0.3,0.9-0.6,1.9-0.7,2.9L607.1,67z"/>
		<path class="st0" d="M646.6,97.1c-2.5,0-4.9-0.5-7.1-1.5c-2.2-1-4.2-2.3-5.8-3.9c-1.7-1.6-3-3.6-4-5.8c-1-2.2-1.4-4.6-1.4-7.1
			c0-2.7,0.5-5.1,1.5-7.4c1-2.2,2.3-4.2,4.1-5.8s3.7-2.9,5.9-3.8c2.3-0.9,4.6-1.4,7.2-1.4c2.5,0,4.9,0.4,7.1,1.3
			c2.2,0.9,4.1,2.1,5.7,3.7c1.6,1.6,2.9,3.5,3.9,5.6c0.9,2.2,1.4,4.5,1.4,7.1c0,1.2-0.3,2.1-1,2.5c-0.6,0.4-1.7,0.6-3.3,0.6h-23.5
			c0.1,1.1,0.4,2.2,0.9,3.3c0.5,1,1.2,1.9,2.1,2.7c0.8,0.8,1.8,1.4,2.9,1.9c1.1,0.5,2.3,0.7,3.5,0.7c1.2,0,2.3-0.2,3.5-0.6
			c1.1-0.4,2.1-1,3-1.8c0.5-0.3,1.1-0.5,1.9-0.5s1.4,0.1,2.1,0.3c0.7,0.2,1.2,0.7,1.7,1.2c0.5,0.6,0.7,1.3,0.7,2.1
			c0,1-0.4,1.8-1.2,2.6c-0.8,0.8-1.8,1.5-3,2c-1.2,0.6-2.6,1-4.2,1.3C649.5,97,648,97.1,646.6,97.1z M646.9,67.6
			c-1.2,0-2.4,0.2-3.5,0.6c-1.1,0.4-2.1,1-3,1.7c-0.9,0.7-1.6,1.6-2.2,2.6c-0.6,1-0.9,2.1-1.1,3.3h19c-0.1-1.2-0.4-2.3-0.9-3.3
			c-0.5-1-1.2-1.9-2-2.6c-0.8-0.7-1.8-1.3-2.9-1.7C649.2,67.8,648.1,67.6,646.9,67.6z"/>
		<path class="st0" d="M685.7,97.1c-1.7,0-3.4-0.2-5.2-0.7c-1.8-0.4-3.5-1.1-5-1.9c-1.5-0.8-2.9-1.9-3.9-3.1
			c-1.1-1.2-1.7-2.6-1.9-4.2c-0.1-0.6,0-1.1,0.3-1.7c0.2-0.5,0.6-0.9,1-1.3c0.4-0.3,0.9-0.6,1.5-0.7c0.5-0.1,1.1-0.1,1.7,0.1
			c0.6,0.1,1.2,0.5,1.7,1.2s1.3,1.3,2.2,2c0.8,0.7,1.9,1.3,3.1,1.9c1.2,0.6,2.7,0.9,4.6,0.9c1,0.1,2,0.1,2.9-0.1
			c0.9-0.1,1.7-0.3,2.4-0.6c0.7-0.3,1.2-0.6,1.6-1c0.4-0.4,0.6-0.9,0.6-1.5c0-0.5-0.3-1-0.9-1.4c-0.6-0.4-1.4-0.8-2.5-1.3
			c-1-0.4-2.2-0.9-3.5-1.3c-1.3-0.4-2.6-0.9-4-1.5s-2.7-1.2-4-1.9c-1.3-0.7-2.4-1.5-3.5-2.4s-1.8-1.9-2.5-3.1
			c-0.6-1.2-0.9-2.5-0.9-4c0-1.1,0.3-2.2,0.9-3.4s1.6-2.2,2.8-3.1c1.2-0.9,2.8-1.6,4.6-2.2c1.8-0.6,3.9-0.9,6.3-0.9
			c1.7,0,3.3,0.1,4.9,0.4c1.6,0.3,3,0.8,4.3,1.4c1.3,0.6,2.4,1.4,3.3,2.3c0.9,0.9,1.6,2,2,3.3c0.1,0.7,0.1,1.4-0.2,1.9
			c-0.3,0.6-0.7,1-1.2,1.4c-0.5,0.3-1,0.6-1.6,0.7c-0.6,0.1-1.2,0.1-1.7-0.1c-0.5-0.2-1.1-0.5-1.7-0.9c-0.6-0.4-1.2-0.8-1.9-1.2
			c-0.7-0.4-1.4-0.8-2.2-1.2s-1.7-0.6-2.7-0.7c-2.1-0.2-3.8-0.1-5,0.3c-1.2,0.5-1.9,1.2-1.9,2.2c0,0.9,0.5,1.7,1.6,2.4
			c1.1,0.7,2.4,1.4,4,2.1c1.6,0.7,3.3,1.4,5.2,2.1c1.9,0.7,3.6,1.6,5.2,2.5c1.6,0.9,2.9,2,4,3.3c1.1,1.3,1.6,2.7,1.6,4.4
			c0,1.9-0.5,3.5-1.4,4.8c-0.9,1.3-2.2,2.4-3.7,3.2c-1.5,0.8-3.3,1.4-5.3,1.8C689.7,97,687.7,97.1,685.7,97.1z"/>
	</g>
	<path class="st0" d="M724.5,152.4H452.6c-16.2,0-29.4-13.2-29.4-29.4V69.3c0-6.2-1.6-10.9-4.7-14c-4.6-4.6-11.3-4.6-11.4-4.6H352
		c-3.3,0-6-2.7-6-6s2.7-6,6-6h55c0,0,0,0,0,0c1.3,0,11.9,0.3,19.8,8c5.5,5.5,8.4,13.1,8.4,22.6V123c0,9.6,7.8,17.4,17.4,17.4h271.9
		c9.6,0,17.4-7.8,17.4-17.4V29.4c0-9.6-7.8-17.4-17.4-17.4H452.6c-4.8,0-9.2,1.8-12.5,5c-3.2,3.1-5,7.3-5,11.8c0,3.3-2.7,6-6,6
		s-6-2.7-6-6c0-7.8,3-15,8.6-20.4C437.3,3,444.7,0,452.6,0h271.9c16.2,0,29.4,13.2,29.4,29.4V123
		C753.9,139.2,740.7,152.4,724.5,152.4z"/>
</g>
</svg>
