<svg id="Layer_1" data-name="Layer 1" xmlns="http://www.w3.org/2000/svg" viewBox="0 0 995.17 282.62"><defs><style>.cls-1{fill:#008ece;}</style></defs><title>logo</title><path d="M691,282.62l1-6.45a29.4,29.4,0,0,0,3.62.15,5,5,0,0,0,4.15-6.66q-5.64-14.62-11.34-29.23c-.28-.73-.53-1.47-.86-2.42h8.9l8.28,22,8.32-22h9c-.38,1-.66,1.83-1,2.62-4.36,10.8-8.85,21.55-13,32.42-1.8,4.68-4.33,8.28-9.39,9.59Z"/><path d="M326.69,181V62h2.76c10.79,0,21.59.08,32.38,0a161.55,161.55,0,0,1,28.36,2.69,61.17,61.17,0,0,1,18.91,6.64c15.12,8.15,23.69,21.07,26.6,37.79,1.75,10,1.71,20.1-1.33,29.92-5,16.17-15.33,27.78-30.75,34.81A81,81,0,0,1,369,181.07c-13.19-.1-26.38,0-39.58,0ZM353,156.76a10.83,10.83,0,0,0,1.28.16c5.35,0,10.71.11,16.06-.09a59,59,0,0,0,17.85-3.23A30.65,30.65,0,0,0,406.42,137c2.65-5.79,3.18-12,3-18.28-.38-11.58-5.82-20.21-15.56-26.18a43.27,43.27,0,0,0-20.49-6c-6.38-.36-12.78-.19-19.17-.24a6.06,6.06,0,0,0-1.19.24Z"/><path d="M725,146.48v28.27c-3.4,1.45-6.83,3.16-10.43,4.42-18.81,6.6-37.75,6.93-56.21-.76-21-8.76-34.19-24.58-38.21-47.21a59.64,59.64,0,0,1,29.31-61.86,74.57,74.57,0,0,1,40.9-9.94c11.51.49,22.34,3.58,32.81,8.2a2.84,2.84,0,0,1,2,3.06c-.09,7.91,0,15.83,0,23.74,0,.61-.06,1.23-.11,2.21-1.09-.68-2-1.19-2.8-1.74a68,68,0,0,0-22.86-10.17c-6.9-1.52-13.84-2.35-20.92-1.28A39,39,0,0,0,645.74,116c-3.23,19.57,9.78,39.48,30.35,43.19a57.27,57.27,0,0,0,37.84-6c2.89-1.52,5.63-3.34,8.43-5C723.11,147.69,723.83,147.2,725,146.48Z"/><path d="M782.55,183.14c-12.58,0-23.08-3.08-32-10.53-9.48-7.94-14.12-18.28-14.53-30.6a44,44,0,0,1,2.53-17.18c3.8-10.1,10.36-17.8,20.2-22.34,16.47-7.6,32.84-7.28,48.7,1.73,11.17,6.35,17.08,16.5,19.18,28.94a42.59,42.59,0,0,1-2.47,23.3c-5.3,13.23-15.32,21.08-28.75,24.93A49.68,49.68,0,0,1,782.55,183.14Zm19.37-43c0-1-.06-2.08-.15-3.11a18.64,18.64,0,0,0-13.11-16.63,23.51,23.51,0,0,0-9.72-.88c-8.31.81-14.5,5.4-16.89,13.7a26.76,26.76,0,0,0-.54,11.63c1.26,8.12,6.79,14,14.89,15.44a31.71,31.71,0,0,0,8.33.34c7.57-.72,12.95-4.59,15.73-11.8A23.36,23.36,0,0,0,801.92,140.17Z"/><path d="M525.88,180.93h-23v-6.42c-1.08.57-1.77.91-2.44,1.29-5.45,3.06-11,5.84-17.3,6.81a37.54,37.54,0,0,1-20.93-2.28c-9.92-4.25-15.35-13.3-14.78-24.07.5-9.41,5-16.1,13.19-20.54,5.2-2.84,10.89-4.09,16.64-5.14a108.15,108.15,0,0,1,22.44-1.51c.94,0,1.89,0,3,0a11.15,11.15,0,0,0-1.48-7,13.37,13.37,0,0,0-10.42-6.85c-14.09-1.89-27,.69-38.23,10-.3.25-.63.45-1.18.83a11.56,11.56,0,0,1-.22-1.48c0-4.48,0-9,0-13.43a3.76,3.76,0,0,1,1.24-2.95c4.7-4.65,10.47-7.26,16.77-8.79,8.39-2,16.92-2.26,25.49-1.73a40.44,40.44,0,0,1,11.72,2.28c9.43,3.5,15.2,10.29,17.58,20a66.69,66.69,0,0,1,2,15.66q.07,21.82.05,43.64C526,179.7,525.92,180.17,525.88,180.93Zm-23.15-35.34c-4.73-.93-15-.83-19.18.54a43.59,43.59,0,0,0-8.24,3.72c-4.92,2.83-5.5,11.57,1.05,14.42a17.75,17.75,0,0,0,2,.82c7.21,2.13,13.71.46,19.62-3.85a11.34,11.34,0,0,0,3.91-5.34C503.12,152.52,502.89,149,502.73,145.59Z"/><path d="M958.2,180.9H932.42c0-1.07,0-2,0-2.95q.11-21.35.22-42.7a22.29,22.29,0,0,0-1.78-9.1,10.4,10.4,0,0,0-9.43-6.66,16,16,0,0,0-12.25,3.73,9.9,9.9,0,0,0-3.74,7c-.31,4.7-.67,9.41-.71,14.12-.1,11.19,0,22.39,0,33.58v3H879.85c-.45-1.69-.63-77.35-.15-81.53,7.82,0,15.68,0,23.81,0v8.41c.49-.21.75-.24.86-.39,3.47-4.55,8.19-7,13.66-8.24a42.17,42.17,0,0,1,19.47.15,23.91,23.91,0,0,1,15.58,11.83,34.41,34.41,0,0,1,4.64,15.47c.25,4.87.43,9.74.45,14.61.06,12.31,0,24.63,0,36.94C958.2,179,958.2,179.87,958.2,180.9Z"/><path d="M540.62,155.49c.68.35,1.37.69,2,1.06,2.74,1.48,5.44,3,8.22,4.44,7.93,4,16.25,4.3,24.76,2.43a13.14,13.14,0,0,0,3.15-1.12,4.78,4.78,0,0,0,1.11-8,10.76,10.76,0,0,0-3.08-1.78c-4.67-2-9.66-2.75-14.58-3.78A47.49,47.49,0,0,1,551.17,145c-7.78-3.78-11.76-10-12.13-18.62-.59-13.78,7.31-23,19.51-26.83,11.43-3.59,22.88-2.8,34.11,1.2a25.4,25.4,0,0,1,9.61,6.16,3.52,3.52,0,0,1,1.19,2c.1,4.85.05,9.71.05,14.9a22.06,22.06,0,0,1-2.1-1c-8.74-5.53-18.46-7.34-28.6-7.43a10.73,10.73,0,0,0-4.2.78c-4.32,1.85-5,4.7-4.21,8.53.38,2,2,3,3.93,3.46l18.28,4.85a33.78,33.78,0,0,1,11.72,5.29c5.1,3.8,8.06,8.82,8.28,15.23a43.28,43.28,0,0,1-.33,8.12c-1.15,7.45-5.8,12.43-12.07,16.1-5.5,3.22-11.59,4.44-17.83,5.11A63.9,63.9,0,0,1,551,180.43a33.21,33.21,0,0,1-9.48-4.5,2.36,2.36,0,0,1-1.26-2.12c.05-5.91,0-11.83.06-17.74C540.34,155.94,540.46,155.81,540.62,155.49Z"/><path class="cls-1" d="M179.81,17.06c1.2.54,2.4,1.09,3.56,1.65a125.48,125.48,0,0,1,19.4,11.6A100.68,100.68,0,0,1,222.4,48.1a117.7,117.7,0,0,1,15.15,23.08q13.15,25.44,13.13,63.3,0,24-6,43.57a111.45,111.45,0,0,1-6.83,17,144.75,144.75,0,0,1-15.1,23.24q-4.41,5.18-19.28,18.5l9.83-8.43a125.85,125.85,0,0,1-9.83,8.43q14.5-21.35,18.74-42.6l.54-2.1a118.06,118.06,0,0,0,2.72-14q7.23-56-48.67-93.81c-1.45-1-2.9-1.92-4.37-2.87q-2.52-1.58-5.11-3.11-35.6-20.5-82.86-21.53H74.54q0-25.09,16-38a53.63,53.63,0,0,1,16.71-8.88q32.68-11.06,69.4,5.8Z"/><path class="cls-1" d="M175,94.36q43.81,34.44,39.71,83.69a132.59,132.59,0,0,1-8.88,36.66q-16,38.49-64.3,49.6l-2.71.51q-51.29,8.73-91.86,0Q7.72,254.71,2,206.4c-.13-1.35-.21-2.73-.24-4.13a177.38,177.38,0,0,1,0-38.79q1,5.18,9.36,14.57c2.35,2.62,5.13,5.52,8.34,8.67Q35.64,202.45,55,208.28t43.77,4.67q24.36-1.17,32.33-3.86t12.72-4.87q5.29-2.22,15.43-9.84,7.54-5.86,13.7-16.32c1.15-2,2.27-4.08,3.34-6.31q7.36-15.06,7.36-37.25,0-22.49-7.36-37.53Z"/><path class="cls-1" d="M59.76,2.32a133.11,133.11,0,0,1,44.77-.82Q86.79,7.62,76.92,18.71q-13,14.65-12.27,38V199.88a62.55,62.55,0,0,1-11.15-3.73q-17.12-7.6-28.62-18.09A70,70,0,0,1,1.72,131.88a357.46,357.46,0,0,1-.66-62.82A78.91,78.91,0,0,1,5.47,47.56a62.46,62.46,0,0,1,5.1-11.16A71.21,71.21,0,0,1,21.73,22.17q1.8-1.82,3.67-3.46A67.43,67.43,0,0,1,39.1,9.32a73.18,73.18,0,0,1,20.66-7"/><path d="M861.09,180.92h-24.7c-.52-1.75-.74-76.38-.26-81.14,1.63-.53,20.44-.73,24.75-.27C861.37,101.26,861.59,175.49,861.09,180.92Z"/><path d="M497,235l-7.75,3.83-1.09-1.4a12.51,12.51,0,0,0-19.61-.39c-4.91,5.74-4.9,15.82,0,21.56,5.35,6.25,15.23,6.1,19.9-.75.22-.32.47-.63.79-1.05l7.76,3.76c-4.71,8.72-15,11.8-24.92,9.38-10.31-2.52-16.94-11.37-16.87-22.25s6.86-19.81,17.13-22C482.45,223.43,492.18,226.09,497,235Z"/><path d="M375.3,269.64h-8c-.49-1.92-.55-41.48-.06-43.91h8v15.95c.8-.6,1.23-.9,1.64-1.23a15.22,15.22,0,0,1,11.91-3.29c4.81.6,7.74,3.76,8.08,8.63.08,1.19.05,2.4.06,3.6q0,8.87,0,17.75c0,.78,0,1.57,0,2.51h-8.35v-2.56c0-5.44,0-10.87,0-16.31a18.35,18.35,0,0,0-.24-3.1c-.43-2.44-1.62-3.6-4.09-4-3.28-.6-5.94.57-8.22,2.88a3.34,3.34,0,0,0-.73,2.67q0,9,0,18Z"/><path d="M848.66,58.9A14.66,14.66,0,1,1,834,73.45,14.64,14.64,0,0,1,848.66,58.9Z"/><path d="M429.42,261.5c.81,1.13,1.51,2.09,2.19,3.07.45.64.87,1.3,1.42,2.13a23.52,23.52,0,0,1-2.46,1.6,22,22,0,0,1-16.3,1.55,16.37,16.37,0,0,1-10.38-22.51c4-9.31,12.61-11.77,20.33-9.6,6.14,1.72,10.36,7.29,11,14.26.1,1,.1,2.07.11,3.11a10.94,10.94,0,0,1-.2,1.4H412a8,8,0,0,0,6.82,7.88A13.54,13.54,0,0,0,429.42,261.5Zm-17.58-11.2H427c-.2-4.47-3.19-7.19-7.72-7.14C415,243.2,412,246.05,411.84,250.3Z"/><path d="M616.68,256.5H593.12a7.92,7.92,0,0,0,6.79,7.89,13.52,13.52,0,0,0,10.58-2.86l3.77,5.21a35,35,0,0,1-3.88,2.17,22.93,22.93,0,0,1-14.09,1.21,15.84,15.84,0,0,1-12.34-15.19c-.21-6.29,1.94-11.44,7.17-15.09,8.08-5.63,22.67-3.41,25,11C616.43,252.55,616.48,254.31,616.68,256.5Zm-8.47-6.16c-.64-4.82-3.41-7.25-7.9-7.18-4.25.07-7.1,2.78-7.44,7.18Z"/><path d="M756.53,270.65c-8.49.32-16.87-5.53-17-16.77-.13-9.73,7-16.79,16.73-16.83,10,0,17.05,6.8,17.14,16.67S766.46,270.63,756.53,270.65Zm-8.23-16.81a12.61,12.61,0,0,0,1.67,6.65,7.39,7.39,0,0,0,12.73.33,13.52,13.52,0,0,0,0-13.89,7.39,7.39,0,0,0-12.74.26A12.42,12.42,0,0,0,748.3,253.84Z"/><path d="M348.89,269.64h-9.52V233.2H326.61v-7.45h35c.32,2.31.06,4.67.16,7.3-4.24.35-8.37,0-12.76.23-.22,2.39-.07,4.76-.1,7.12s0,4.79,0,7.19v22Z"/><path d="M531.8,269.67h-8.16l-.21-3.44-2,1.47a14.85,14.85,0,0,1-12.5,2.6c-4.06-.91-6.7-3.69-6.81-7.91-.23-8.05-.07-16.12-.07-24.36h8.38v2.7q0,7.92,0,15.83c0,.88,0,1.76.08,2.64.27,3.17,1.84,4.8,5,5.05a8.53,8.53,0,0,0,7.43-3.16,4.05,4.05,0,0,0,.61-2.43c0-5.92,0-11.83,0-17.75v-2.56a21.17,21.17,0,0,1,8.27-.24Z"/><path d="M630.38,269.67h-8.29V238h8.11l.36,3.47c.83-.62,1.44-1.09,2.07-1.54a14.74,14.74,0,0,1,12.75-2.37c3.53.91,5.53,3.34,6.25,6.85a14.57,14.57,0,0,1,.31,2.86q0,10.43,0,20.86c0,.46-.09.93-.15,1.54h-8.14c0-.67-.14-1.35-.14-2q0-7.55,0-15.1c0-.88,0-1.76,0-2.64-.07-5.21-3.58-7.69-8.51-5.94a14,14,0,0,0-3.08,1.8,3.59,3.59,0,0,0-1.55,3.28c.07,6,0,12,0,18C630.38,267.84,630.38,268.69,630.38,269.67Z"/><path d="M826.64,233.16H813.89v-7.41h34.8v7.36H836.13v36.51h-9.49Z"/><path d="M894.36,237.94h7.94c.5,1.82.61,28.79.13,31.71h-7.93l-.27-3.33c-.62.4-1.14.68-1.59,1A15.28,15.28,0,0,1,881,270.57c-4.85-.54-7.87-3.79-8.14-8.8-.11-2.07,0-4.15,0-6.23q0-7.55,0-15.1c0-.78.07-1.56.11-2.46H881c0,1,.11,1.82.11,2.67,0,5.35,0,10.71,0,16.06a20.88,20.88,0,0,0,.12,2.63c.42,3.25,2.12,4.81,5.41,4.92a8.57,8.57,0,0,0,7-3.1,4,4,0,0,0,.69-2.4c.06-6.07,0-12.15,0-18.22C894.36,239.76,894.36,239,894.36,237.94Z"/><path d="M934.65,241.19l-3.2,5.46-1.64-1.1a13.56,13.56,0,0,0-8.62-2.36,8.31,8.31,0,0,0-2.32.5,2.63,2.63,0,0,0-1.95,2.46,2.4,2.4,0,0,0,1.88,2.47c1.51.51,3.05.92,4.59,1.34,1.92.52,3.9.89,5.78,1.54,4.2,1.45,6.39,4.28,6.57,8.22a9.17,9.17,0,0,1-5.73,9.37,16.65,16.65,0,0,1-4.81,1.39,24.36,24.36,0,0,1-14-2.18c-1.19-.59-2.29-1.39-3.59-2.18l3.53-5.63c1.78,1,3.35,1.89,5,2.66a13.46,13.46,0,0,0,7.46,1.32,6.56,6.56,0,0,0,2.28-.64A3.23,3.23,0,0,0,926,258a27.2,27.2,0,0,0-5.18-1.79c-2-.57-4.07-.87-6-1.55-3.2-1.12-5.6-3.12-6-6.77a8.62,8.62,0,0,1,4.56-8.82,16.73,16.73,0,0,1,9.71-2A20.3,20.3,0,0,1,934.65,241.19Z"/><path d="M797.61,226.37,796,231.64c-5.44-.72-7.12.83-6.54,6.14l3,.06h3.19c0,1.13.07,2.14.08,3.14s0,1.91,0,3.2h-6.45v25.46a76.92,76.92,0,0,1-8.46.12c-.17-2.87-.06-5.63-.08-8.39s0-5.6,0-8.4v-8.58l-5.15-.28V238l5-.24c.08-5,1-9.49,6.08-11.82A13.23,13.23,0,0,1,797.61,226.37Z"/><path d="M687,242.16l-5.19,4.58c-.32-.26-.57-.42-.79-.63-5-4.79-12.21-2.94-14.24,3.69a13.67,13.67,0,0,0,0,8c2.29,7.63,10.51,8,14.19,3.78.16-.18.35-.32.74-.68l5.25,4.58c-3.81,5.86-17.14,7.42-24.17.91-6.87-6.36-7.08-18.19-.38-24.79C669.55,234.63,683,236.27,687,242.16Z"/><path d="M951.48,229.13v8.62h6.14c.67,2.25.29,4.26.28,6.5h-6.24c-.07.83-.17,1.44-.17,2.05q0,6.71,0,13.42a10.47,10.47,0,0,0,0,1.2c.31,2.68,1.88,3.75,4.49,3.07.37-.1.74-.23,1.39-.43l1.67,5.27a7.89,7.89,0,0,1-1.26.83,14.18,14.18,0,0,1-9.38.47,6.84,6.84,0,0,1-5-5.32,18.41,18.41,0,0,1-.45-4c-.05-4.63,0-9.27,0-13.9,0-.78,0-1.56,0-2.57h-5.11V238l5-.28v-8.48A73.55,73.55,0,0,1,951.48,229.13Z"/><path d="M558.06,237.07v7.56a10.63,10.63,0,0,0-2,0,31.29,31.29,0,0,0-5.07,1.21,4.35,4.35,0,0,0-3.09,4.76c.24,5.5.07,11,.07,16.53v2.49h-8c-.51-1.69-.65-28.57-.15-31.64h8.07l.2,3.71C551.1,239.22,554,237.14,558.06,237.07Z"/><path d="M581.28,237.11v7.42a13.92,13.92,0,0,0-2,.12,33.36,33.36,0,0,0-5.08,1.2,4.36,4.36,0,0,0-3.1,4.77c.23,5.43.07,10.87.07,16.31,0,.86,0,1.72,0,2.72H563V238H571l.31,3.69C574.36,239.2,577.26,237,581.28,237.11Z"/><path d="M849.75,238h8.08l.23,3.81c2.94-2.56,5.89-4.65,9.93-4.72v7.57a10.82,10.82,0,0,0-2.46,0,36.76,36.76,0,0,0-5.42,1.68c-1.58.67-2.24,2-2.2,3.85.12,5.67,0,11.34,0,17,0,.78-.07,1.56-.11,2.46h-8.09Z"/><path d="M974.43,85.49V65.43h4.35l6,15.36,6-15.47h3.94c.46,1.71.55,17.38.12,20h-2.5V70.07l-.49-.08c-.34.76-.71,1.52-1,2.3q-2.22,5.56-4.4,11.13A3.87,3.87,0,0,1,986,84.5a2.83,2.83,0,0,1-1.2.93c-.73.21-1.14-.29-1.4-1-.86-2.23-1.76-4.45-2.65-6.68s-1.87-4.75-2.82-7.12a1.42,1.42,0,0,0-.91-.85V85.36Z"/><path d="M971.48,65.35v2.27h-6.32c-.23,6,0,11.79-.16,17.71h-2.75V67.7h-6.34V65.35Z"/></svg>