<?xml version="1.0" encoding="utf-8"?>
<!-- Generator: Adobe Illustrator 19.0.0, SVG Export Plug-In . SVG Version: 6.00 Build 0)  -->
<svg version="1.1" id="Layer_1" xmlns="http://www.w3.org/2000/svg" xmlns:xlink="http://www.w3.org/1999/xlink" x="0px" y="0px"
	 viewBox="0 0 274.4 396.3" style="enable-background:new 0 0 274.4 396.3;" xml:space="preserve">
<style type="text/css">
	.st0{fill:#008FBE;}
	.st1{fill:#FFFFFF;}
</style>
<path class="st0" d="M274.4,259.1c0,75.8-61.4,137.2-137.2,137.2C61.4,396.3,0,334.9,0,259.1C0,157.2,71.5,132.2,137.2,0
	C197.3,132.2,274.4,157.2,274.4,259.1z"/>
<g>
	<path class="st1" d="M45.6,194.9l0.2,0l0.2-0.1l4.3-5.7L67.4,202c0.1,0.1,0.3,0.1,0.3,0l2.3-3.1l0-0.2l-0.1-0.2l-17.2-12.9l4.3-5.7
		l0-0.2l-0.1-0.2l-3-2.2c-0.1-0.1-0.3-0.1-0.3,0.1l-11.2,14.9c-0.1,0.1-0.1,0.3,0,0.3L45.6,194.9z"/>
	<path class="st1" d="M81.2,184.6c2.1,0,4.3-0.7,6.2-2.2l0,0c2.8-2.1,4.2-5,4.2-8.2c0-2.9-1.2-6.1-3.4-9.1c-3-4-6.8-6.2-10.7-6.2
		c-2.1,0-4.3,0.7-6.2,2.2c-2.8,2.1-4.2,5-4.2,8.2c0,3,1.2,6.1,3.4,9.1C73.6,182.4,77.4,184.6,81.2,184.6z M73.9,164.5
		c1.2-0.9,2.4-1.3,3.7-1.3c2.4,0,4.9,1.6,7.1,4.5c1.7,2.3,2.6,4.5,2.6,6.5c0,1.9-0.8,3.5-2.5,4.8c-1.2,0.9-2.4,1.3-3.6,1.3
		c-2.4,0-4.9-1.6-7.1-4.5c-1.7-2.3-2.6-4.5-2.6-6.5C71.4,167.4,72.2,165.8,73.9,164.5z"/>
	<path class="st1" d="M103.2,167.5c1.6,1.4,3.4,2.1,5.5,2.1c1.2,0,2.4-0.2,3.8-0.7l0,0c2.2-0.8,3.9-1.9,5-3.4
		c1.1-1.5,1.7-3.3,1.7-5.4c0-1.6-0.3-3.3-1-5.2l-4.9-14c0-0.1-0.2-0.2-0.3-0.2l-3.6,1.3l-0.1,0.1l0,0.2l4.9,14.1
		c0.5,1.3,0.7,2.5,0.7,3.5c0,1.2-0.3,2.2-0.9,3c-0.6,0.8-1.5,1.4-2.8,1.9c-0.7,0.3-1.4,0.4-2.1,0.4c-1.2,0-2.3-0.4-3.2-1.3
		c-0.9-0.9-1.7-2.2-2.3-4l-4.8-13.9l-0.1-0.1l-0.2,0l-3.6,1.3c-0.1,0-0.2,0.2-0.2,0.3l4.8,14C100.4,164.1,101.6,166.1,103.2,167.5z"
		/>
	<path class="st1" d="M130.9,163.7l0.2,0.1l3.7-0.1c0.1,0,0.2-0.1,0.2-0.3l-0.2-9.8l5.3-0.1l5.2,9.8c0,0.1,0.1,0.1,0.2,0.1l4.4-0.1
		l0.2-0.1l0-0.2l-5.3-10c1.6-0.5,2.9-1.3,3.8-2.5c1-1.3,1.5-2.9,1.5-4.9c0-0.1,0-0.2,0-0.3c-0.1-2.6-1-4.6-2.6-5.8
		c-1.5-1.3-3.6-1.8-5.8-1.8c-0.1,0-0.2,0-0.3,0l-11.2,0.3l-0.2,0.1l-0.1,0.2l0.6,25.5L130.9,163.7z M141.7,141.6l0.2,0
		c1.2,0,2.2,0.3,2.9,1c0.7,0.6,1.1,1.6,1.1,2.8l0,0.1c0,1.3-0.4,2.2-1.1,2.8c-0.7,0.6-1.7,0.9-2.9,1l-7.2,0.2l-0.2-7.7L141.7,141.6
		l0-0.2L141.7,141.6z"/>
	<path class="st1" d="M159.4,164.5l3.6,1c0.1,0,0.3,0,0.3-0.2l3.7-12.7c0.3-1.1,1-3.4,1.4-4.8c0.2,0.8,0.5,1.9,0.7,2.7h0l5.2,18.2
		l0.2,0.2l3.5,1l0.2,0l0.1-0.1l7.2-24.4l0-0.2l-0.1-0.1l-3.6-1c-0.1,0-0.3,0-0.3,0.2l-3.7,12.6c-0.3,1.1-1,3.4-1.4,4.9
		c-0.2-1-0.6-2.3-0.8-3.1l-4.9-17.7l-0.2-0.2l-3.7-1.1c-0.1,0-0.3,0-0.3,0.2l-7.2,24.4l0,0.2L159.4,164.5z"/>
	<path class="st1" d="M200.9,183.8l0.2,0l0.2-0.1l2-3.1c0.1-0.1,0-0.3-0.1-0.3l-10.7-7.1l4.2-6.3l5.9,3.9l0.2,0l0.2-0.1l2-3.1
		c0.1-0.1,0-0.3-0.1-0.3l-5.9-3.9l3.2-4.8l10.3,6.8l0.2,0l0.2-0.1l2-3.1c0.1-0.1,0-0.3-0.1-0.3l-13.7-9.1l-0.2,0l-0.2,0.1
		l-14.1,21.2l0,0.2l0.1,0.2L200.9,183.8z"/>
	<path class="st1" d="M211,155.8l0.2,0l8.2-1.5c0.1,0,0.2-0.1,0.2-0.2c0-0.1,0-0.2-0.1-0.3l-4.2-2.8l-0.2,0l-6.5,2.7
		c-0.1,0-0.1,0.1-0.2,0.2s0,0.2,0.1,0.2L211,155.8z"/>
	<path class="st1" d="M207.4,189.7l11,12.9l0.2,0.1l0.2-0.1l2.8-2.4c0.1-0.1,0.1-0.2,0-0.4l-8.4-9.8l5.7-4.9l4.6,5.4l0.2,0.1
		l0.2-0.1l2.8-2.4c0.1-0.1,0.1-0.2,0-0.4l-4.6-5.4l4.4-3.8l8,9.4l0.2,0.1l0.2-0.1l2.8-2.4c0.1-0.1,0.1-0.2,0-0.4l-10.7-12.5
		l-0.2-0.1l-0.2,0.1l-19.3,16.6C207.3,189.4,207.3,189.6,207.4,189.7z"/>
	<path class="st1" d="M74.4,322.3L72,319c-0.1-0.1-0.2-0.1-0.3-0.1l-14.3,3.2l0,0c-1.3,0.3-2.8,0.6-3.9,0.9c0.7-0.9,1.5-2.3,2.2-3.4
		l7.8-12.5l0-0.3l-2.3-3.2l-0.2-0.1l-0.2,0l-20.8,14.7l-0.1,0.2l0,0.2l2.1,2.9c0.1,0.1,0.2,0.1,0.3,0.1l11-7.7
		c0.8-0.5,1.7-1.2,2.5-1.8c-0.5,0.7-1.1,1.7-1.6,2.5l-8.2,13.3l0,0.3c0.1,0.1,0.2,0.1,0.3,0.1l15.3-3.2c0.9-0.2,2-0.4,2.9-0.6
		c-0.8,0.5-1.8,1.2-2.5,1.7l-11,7.8l-0.1,0.2l0,0.2l2.2,3.1c0.1,0.1,0.2,0.1,0.3,0.1l20.8-14.7C74.4,322.6,74.5,322.4,74.4,322.3z"
		/>
	<path class="st1" d="M84.7,331.2l-0.1-0.2l-2.9-2.5c-0.1-0.1-0.3-0.1-0.4,0L64.9,348l-0.1,0.2l0.1,0.2l2.9,2.5
		c0.1,0.1,0.3,0.1,0.4,0l16.5-19.5L84.7,331.2z"/>
	<path class="st1" d="M106.2,344.1c-0.1-0.1-0.3,0-0.3,0.1L100,356c-0.5,1-1.6,3.2-2.2,4.5c-0.1-1-0.1-2.3-0.2-3.2l-1.7-18.2
		l-0.1-0.2l-3.5-1.7l-0.2,0l-0.1,0.1L80.5,360c-0.1,0.1,0,0.3,0.1,0.3L84,362l0.2,0l0.1-0.1l5.9-11.8c0.5-1,1.6-3.2,2.2-4.5
		c0.1,0.8,0.1,1.9,0.2,2.7l0,0l2,18.8l0.1,0.2L98,369l0.2,0l0.1-0.1l11.4-22.8l0-0.2l-0.1-0.1L106.2,344.1z"/>
	<path class="st1" d="M127.2,347.2l0.2,0l6.9-4.8c0.1-0.1,0.1-0.2,0.1-0.3c0-0.1-0.1-0.2-0.2-0.2l-5-0.8l-0.2,0.1l-4.8,5.1l-0.1,0.3
		c0,0.1,0.1,0.2,0.2,0.2L127.2,347.2z"/>
	<path class="st1" d="M134.4,350.9l-16.2-2.7l-0.2,0l-0.1,0.2l-4.1,25.2c0,0.1,0.1,0.3,0.2,0.3l16.7,2.8l0.2,0l0.1-0.2l0.6-3.7
		l0-0.2l-0.2-0.1l-12.7-2.1l1.2-7.4l7,1.1l0.2,0l0.1-0.2l0.6-3.7l0-0.2l-0.2-0.1l-7-1.1l0.9-5.7l12.2,2l0.2,0l0.1-0.2l0.6-3.7
		C134.6,351.1,134.5,350.9,134.4,350.9z"/>
	<path class="st1" d="M158.8,364.7c2.8-1.2,4.6-3.6,4.6-6.9c0-0.4,0-0.9-0.1-1.4c-0.3-2.4-1.3-4.1-2.7-5.2c-1.4-1.1-3.2-1.6-5.2-1.6
		c-0.5,0-1,0-1.5,0.1l-11.1,1.4c-0.1,0-0.2,0.1-0.2,0.3l3.3,25.3l0.1,0.2l0.2,0l3.7-0.5l0.2-0.1l0-0.2l-1.3-9.8l5.3-0.7l6.2,9.2
		c0.1,0.1,0.1,0.1,0.2,0.1l4.4-0.6l0.2-0.1l0-0.2L158.8,364.7z M154.4,353.8c0.3,0,0.5,0,0.8,0c1,0,1.9,0.3,2.6,0.8
		c0.6,0.6,1.1,1.4,1.2,2.5c0,0.2,0,0.5,0,0.7c0,1.1-0.4,1.9-1,2.5c-0.6,0.6-1.5,1-2.6,1.1l-7.1,0.9l-1-7.6L154.4,353.8z"/>
	<path class="st1" d="M180.1,341.6c-0.1-0.1-0.2-0.1-0.3,0l-3.7,1.7c-0.1,0-0.2,0.1-0.1,0.2l2.5,27l0.1,0.2l0.2,0l3.6-1.7
		c0.1,0,0.2-0.1,0.1-0.3l-0.6-6.2l8.9-4.2l4.4,4.4c0.1,0.1,0.2,0.1,0.3,0.1l3.7-1.7l0.1-0.2l-0.1-0.2L180.1,341.6z M180.3,347.4
		c1,1.1,2.6,2.7,3.7,3.9l0,0l4.1,4.2l-6.5,3l-0.6-5.8C180.8,351,180.5,348.8,180.3,347.4z"/>
	<path class="st1" d="M221.3,338.1c-0.1-0.1-0.3-0.1-0.4,0l-9.3,8.3l-14.4-16c-0.1-0.1-0.3-0.1-0.4,0l-2.8,2.6l-0.1,0.2l0.1,0.2
		l17,19l0.2,0.1l0.2-0.1l12.3-11l0.1-0.2l-0.1-0.2L221.3,338.1z"/>
	<path class="st1" d="M242.3,315.2l-3.1-2l-0.2,0l-0.2,0.1l-6.9,10.9l-6.4-4l3.8-6c0.1-0.1,0-0.3-0.1-0.3l-3.1-2
		c-0.1-0.1-0.3,0-0.3,0.1l-3.8,6l-4.9-3.1l6.6-10.4l0-0.2l-0.1-0.2l-3.1-2c-0.1-0.1-0.3,0-0.3,0.1l-8.8,13.9c-0.1,0.1,0,0.3,0.1,0.3
		l21.5,13.6c0.1,0.1,0.3,0,0.3-0.1l9.1-14.3C242.4,315.4,242.4,315.3,242.3,315.2z"/>
	<path class="st1" d="M137.6,239.7L137.6,239.7C137.6,239.7,137.6,239.7,137.6,239.7L137.6,239.7c-0.6-0.8-1.4-1.3-2.4-1.5
		l-48.6-6.2l0,0c-0.1,0-0.3,0-0.4,0c-0.8,0-1.6,0.3-2.3,0.8c-0.7,0.6-1.2,1.6-1.2,2.6l-1,72.4l0,0c0,1.7,1.3,3.2,3,3.4l32.4,4.1
		c0.1,0,0.3,0,0.4,0c1.6,0,3-1.1,3.3-2.6l17.2-70.3c0.1-0.3,0.1-0.5,0.1-0.8C138.2,241,138,240.3,137.6,239.7L137.6,239.7z
		 M105.9,267.5c-5.2,3-9.5,4.3-13,4.3c-2.7,0-4.9-0.7-7-2.1l0.5-34l48.2,6.1l-5.9,24.1c-2.5-1.5-5.6-2.6-9.2-2.6
		C115.6,263.4,111.1,264.5,105.9,267.5z M117.5,311.8l-32.1-4.1l0.5-33.6c2.1,1,4.5,1.6,7.2,1.6c4.1,0,8.9-1.3,14.3-4.4
		c4.6-2.6,8.5-3.6,11.9-3.6c3.3,0,6.1,0.9,8.6,2.2L117.5,311.8z"/>
	<path class="st1" d="M204.5,289.1c0-0.1,0-0.2,0-0.4l-7.5-72c-0.1-1-0.6-1.9-1.4-2.4c-0.6-0.4-1.3-0.6-2-0.6c-0.3,0-0.5,0-0.8,0.1
		L145,224.3l0,0c-1,0.2-1.8,0.8-2.3,1.7c-0.3,0.5-0.4,1.1-0.4,1.7c0,0.4,0.1,0.8,0.2,1.1h0l23.5,68.4c0.5,1.4,1.8,2.3,3.3,2.3
		c0.2,0,0.5,0,0.7-0.1l31.9-7C203.4,292.1,204.5,290.7,204.5,289.1z M176.9,250.8c-4.6-2.1-8.7-3-12.1-3c-4.5,0-8,1.5-10.8,3.5
		l-8.1-23.5l47.5-10.5l3.5,33.9c-2.3,1.8-4.9,2.7-8.2,2.7C185.5,253.9,181.6,252.9,176.9,250.8z M165.2,252c3,0,6.5,0.7,10.6,2.6
		c4.8,2.2,9.1,3.2,12.8,3.2c3.4,0,6.4-0.8,8.8-2.3l3.5,33.4l-31.6,7l-14-40.8C158.1,253.3,161.2,252,165.2,252z"/>
	<polygon class="st1" points="110.1,200.4 110.1,200.4 110.1,200.4 	"/>
	<path class="st1" d="M112.9,197.6c-0.4-0.3-0.8-0.6-1.4-0.6c-1.1,0-2,0.9-2,2c0,0.5,0.2,1,0.6,1.4l15.3,15.3l0,0
		c0.4,0.4,0.9,0.6,1.4,0.6c1.1,0,1.9-0.9,1.9-2c0-0.5-0.2-0.9-0.5-1.2l0,0L112.9,197.6z"/>
	<path class="st1" d="M142.5,182c0-1.1-0.9-2-2-2c-1.1,0-2,0.9-2,2v21.8c0,1.1,0.9,1.9,2,1.9c1.1,0,2-0.9,2-1.9V182z"/>
	<path class="st1" d="M154.8,216.2c0.5,0,1-0.2,1.3-0.5h0l15.7-15.7l0,0c0.3-0.3,0.4-0.8,0.4-1.2c0-1.1-0.9-1.9-2-2
		c-0.5,0-1,0.2-1.4,0.6l0,0l-15.5,15.5c-0.4,0.4-0.6,0.8-0.6,1.4C152.9,215.3,153.8,216.2,154.8,216.2z"/>
</g>
</svg>
