<svg id="Layer_1" data-name="Layer 1" xmlns="http://www.w3.org/2000/svg" viewBox="0 0 104.8 190.3"><defs><style>.cls-1{fill:#d41c3a;}.cls-2{fill:#fff;}</style></defs><title>logo</title><path class="cls-1" d="M104.8,159.6V0H0V190.3l88.6-10.9s16.2-2.5,16.2-19.8"/><path class="cls-2" d="M45.1,156.8l-.4,7.5c0,.8-.1,2.1-1.6,2.3h-.2a1.22,1.22,0,0,1-.9-.3,2,2,0,0,1-.3-1.7l.4-7.3-6.3.8-.4,8.2a4.74,4.74,0,0,0,1.2,3.8,6.23,6.23,0,0,0,4.9,1.7,6.15,6.15,0,0,0,1.3-.1c5.8-.7,8-4.5,8.2-7.6l.4-8Z"/><polygon class="cls-2" points="54.1 155.7 53.3 170 59.6 169.2 60.4 154.9 54.1 155.7"/><path class="cls-2" d="M56.7,153.1h.5a4.06,4.06,0,0,0,3.8-3.7,2.88,2.88,0,0,0-.6-1.9,3,3,0,0,0-2.2-.8h-.5a4.07,4.07,0,0,0-3.8,3.7,2.67,2.67,0,0,0,.6,2,3.2,3.2,0,0,0,2.2.7"/><path class="cls-2" d="M93.1,150.9l-6.4.8-3.8,6-.7.1.8-15.1-4.1.5a2.47,2.47,0,0,0-1.6.8h0a3.17,3.17,0,0,0-.7,1.7l-1.2,21.5,6.3-.8.3-5.5.6-.1,2.9,4a2.84,2.84,0,0,0,2.1.9H88l4.8-.6-4.9-6.7Z"/><path class="cls-2" d="M31.1,168.9l.2-.2a13.28,13.28,0,0,0,2.2-6.5,9.11,9.11,0,0,0-2.1-6.9,8.21,8.21,0,0,0-6.7-2.5,7.57,7.57,0,0,0-1.5.1A13.12,13.12,0,0,0,11.6,165a9,9,0,0,0,2.1,6.8,8,8,0,0,0,6.4,2.5,5.7,5.7,0,0,0,1.3-.1,15.44,15.44,0,0,0,5.5-1.7l.2-.1,1.8,1.8a4.23,4.23,0,0,0,1.5,1.2,4.42,4.42,0,0,0,1.5.2h.4l4.5-.6Zm-7.7-1.2a6.11,6.11,0,0,1-1.3.3h-.4a3.25,3.25,0,0,1-2.4-1,4.27,4.27,0,0,1-1-3.2,4.87,4.87,0,0,1,4.3-4.8,3.48,3.48,0,0,1,3,1,4.29,4.29,0,0,1,1,3.1,4.15,4.15,0,0,1-.3,1.6l-4.6.7,1.4,1.3.8.8Z"/><path class="cls-2" d="M95.8,113.6c-11.1,7.8-23.6,5-31.4,2,16.7-5.6,28-21.6,28-40.5,0-23.6-18-42.7-41.2-42.7S10,51.5,10,75.1c0,15,6.9,28.2,18.4,35.8a39.65,39.65,0,0,0-16.6,8.5l5,8.4a30.3,30.3,0,0,1,23.5-1.4c12.3,4.3,18.1,8.6,29.6,9.3,19.8,1.2,25.9-14.2,27.1-21.1ZM51.3,100.5c-11,0-18.6-12.3-18.6-25.5s7.6-25.5,18.6-25.5S69.9,61.8,69.9,75s-7.6,25.5-18.6,25.5"/><polyline class="cls-2" points="72.8 167.3 72.8 167.3 72.8 167.3 72.8 167.3"/><path class="cls-2" d="M67.5,161a3.18,3.18,0,0,0,.2,1.4,2.09,2.09,0,0,0,.4.6,3.09,3.09,0,0,0,2.1.8h.6a4.59,4.59,0,0,0,2.5-1l-.5,4.6h0a10.67,10.67,0,0,1-3.7,1.1c-.3,0-.6.1-.9.1a6,6,0,0,1-4.6-1.8,6.47,6.47,0,0,1-1.5-4.8,8.94,8.94,0,0,1,1.5-4.5,9.81,9.81,0,0,1,6.8-4.2c.4,0,.7-.1,1.1-.1a8.75,8.75,0,0,1,2.4.3l-.2,4.4a3.45,3.45,0,0,0-1.8-.5h-.5c-.5.1-.9.2-1.3.3a3.71,3.71,0,0,0-2.6,3.3"/><path class="cls-2" d="M92.4,133.3h0a2.37,2.37,0,0,1,2.4-2.4,2.43,2.43,0,0,1,2.4,2.4h0a2.37,2.37,0,0,1-2.4,2.4,2.5,2.5,0,0,1-2.4-2.4m4.5,0h0a2.05,2.05,0,0,0-2.1-2.1,2.11,2.11,0,0,0-2.1,2.1h0a2.05,2.05,0,0,0,2.1,2.1,2.11,2.11,0,0,0,2.1-2.1m-3.1-1a.27.27,0,0,1,.3-.3H95c.6,0,1,.3,1,.8a.67.67,0,0,1-.5.7l.4.4c.1.1.1.1.1.2a.27.27,0,0,1-.3.3.35.35,0,0,1-.2-.1l-.6-.7h-.4v.5a.3.3,0,1,1-.6,0l-.1-1.8Zm1.1.9c.3,0,.4-.1.4-.3s-.2-.3-.4-.3h-.5v.7h.5Z"/></svg>